<?xml version="1.0" encoding="UTF-8"?>
<svg xmlns="http://www.w3.org/2000/svg" xmlns:xlink="http://www.w3.org/1999/xlink" width="841.89pt" height="595.276pt" viewBox="0 0 841.89 595.276" version="1.1">
<g id="surface1">
<path style=" stroke:none;fill-rule:nonzero;fill:rgb(13.729858%,12.159729%,12.548828%);fill-opacity:1;" d="M 519.34375 441.363281 C 519.183594 440.96875 519.144531 440.707031 519.0625 440.726563 C 518.9375 440.769531 518.742188 440.882813 518.5625 440.949219 C 517.597656 441.476563 515.839844 442.210938 513.40625 442.199219 C 508.746094 442.164063 504.605469 438.59375 504.605469 432.816406 C 504.605469 426.515625 508.054688 423.097656 512.738281 423.097656 C 515.359375 423.105469 517.171875 423.753906 518.882813 424.925781 C 519.691406 422.027344 521.050781 419.292969 522.742188 417.03125 C 522.074219 416.542969 520.949219 415.816406 519.425781 415.09375 L 519.425781 415.101563 C 517.136719 414.070313 514.554688 413.5 511.652344 413.5 C 501.300781 413.5 493.402344 420.503906 493.402344 432.601563 C 493.402344 444.640625 501.300781 451.636719 511.652344 451.636719 C 516.65625 451.648438 520.496094 450.023438 520.496094 450.023438 C 521.332031 449.695313 522.675781 449.0625 523.25 448.800781 C 520.871094 445.570313 519.78125 442.507813 519.34375 441.363281 "/>
<path style=" stroke:none;fill-rule:nonzero;fill:rgb(13.729858%,12.159729%,12.548828%);fill-opacity:1;" d="M 293.34375 421.273438 L 297.460938 421.273438 C 301.140625 421.273438 304.933594 420.203125 304.933594 416.089844 C 304.933594 411.609375 301.3125 411.199219 297.601563 411.199219 L 293.34375 411.199219 Z M 293.34375 441.570313 L 297.648438 441.570313 C 301.742188 441.570313 306.015625 440.855469 306.015625 435.886719 C 306.015625 430.5625 301.621094 430.085938 297.769531 430.085938 L 293.34375 430.085938 Z M 282.148438 401.957031 L 302.464844 401.957031 C 310.296875 401.957031 316.128906 405.9375 316.128906 414.335938 C 316.128906 420.503906 313.425781 423.933594 308.71875 425.746094 L 308.71875 425.894531 C 314.320313 427.210938 317.210938 430.710938 317.210938 436.660156 C 317.210938 448.359375 308.371094 450.792969 300.839844 450.792969 L 282.148438 450.792969 Z M 282.148438 401.957031 "/>
<path style=" stroke:none;fill-rule:nonzero;fill:rgb(13.729858%,12.159729%,12.548828%);fill-opacity:1;" d="M 402.613281 441.972656 C 406.226563 441.972656 409.234375 437.992188 409.234375 432.667969 C 409.234375 427.15625 406.585938 423.160156 402.613281 423.160156 C 398.40625 423.160156 396.046875 427.359375 396.046875 432.1875 C 396.046875 437.992188 398.515625 441.972656 402.613281 441.972656 M 420.0625 450.792969 L 410.078125 450.792969 L 410.078125 445.316406 L 409.957031 445.316406 C 407.84375 449.375 403.796875 451.636719 399.175781 451.636719 C 389.847656 451.636719 384.851563 442.679688 384.851563 431.90625 C 384.851563 422.945313 389.625 413.496094 398.28125 413.496094 C 402.613281 413.496094 406.285156 414.832031 409.054688 419.03125 L 409.167969 419.03125 L 409.167969 401.824219 L 420.0625 401.824219 Z M 420.0625 450.792969 "/>
<path style=" stroke:none;fill-rule:nonzero;fill:rgb(13.729858%,12.159729%,12.548828%);fill-opacity:1;" d="M 549.800781 432.601563 C 549.800781 427.15625 547.761719 422.316406 542.765625 422.316406 C 537.777344 422.316406 535.730469 427.15625 535.730469 432.601563 C 535.730469 437.992188 537.777344 442.820313 542.765625 442.820313 C 547.761719 442.820313 549.800781 437.992188 549.800781 432.601563 M 524.527344 432.601563 C 524.527344 420.503906 532.414063 413.496094 542.765625 413.496094 C 553.125 413.496094 561.003906 420.503906 561.003906 432.601563 C 561.003906 444.640625 553.125 451.636719 542.765625 451.636719 C 532.414063 451.636719 524.527344 444.640625 524.527344 432.601563 "/>
<path style=" stroke:none;fill-rule:nonzero;fill:rgb(13.729858%,12.159729%,12.548828%);fill-opacity:1;" d="M 369.1875 439.230469 C 367.757813 441.730469 365.375 443.015625 362.433594 443.015625 C 359.90625 443.015625 357.992188 441.542969 357.992188 439.015625 C 357.992188 435.519531 360.875 434.199219 364.546875 434.199219 C 366.171875 434.199219 367.796875 434.335938 369.1875 434.40625 Z M 379.835938 450.792969 C 379.347656 447.917969 379.234375 445.074219 379.234375 442.199219 L 379.234375 428.609375 C 379.234375 417.488281 372.3125 413.5 364.304688 413.5 C 359.726563 413.5 355.765625 414.25 351.960938 416.003906 L 351.960938 424.535156 L 351.972656 424.628906 C 354.988281 422.671875 358.460938 421.894531 361.957031 421.894531 C 365.878906 421.894531 369.054688 423.226563 369.113281 428.207031 C 367.730469 427.914063 365.824219 427.707031 364.066406 427.707031 C 358.28125 427.707031 347.867188 429.023438 347.867188 440.160156 C 347.867188 448.078125 353.417969 451.636719 359.617188 451.636719 C 363.710938 451.636719 367.242188 449.695313 369.242188 445.976563 L 369.242188 450.792969 Z M 379.835938 450.792969 "/>
<path style=" stroke:none;fill-rule:nonzero;fill:rgb(13.729858%,12.159729%,12.548828%);fill-opacity:1;" d="M 342.589844 413.496094 C 337.894531 413.496094 335.179688 416.4375 333.308594 421.050781 L 333.199219 421.050781 L 333.199219 414.335938 L 323.328125 414.335938 L 323.328125 450.792969 L 334.171875 450.792969 L 334.171875 435.390625 C 334.171875 428.269531 336.953125 423.980469 341.996094 423.613281 C 343.050781 423.527344 344.785156 423.847656 345.714844 424.203125 L 345.714844 414.054688 C 344.785156 413.722656 343.554688 413.496094 342.589844 413.496094 "/>
<path style=" stroke:none;fill-rule:nonzero;fill:rgb(13.729858%,12.159729%,12.548828%);fill-opacity:1;" d="M 436.488281 429.105469 C 436.742188 424.910156 438.601563 421.480469 442.507813 421.480469 C 446.847656 421.480469 448.539063 424.910156 448.539063 429.105469 Z M 458.285156 433.933594 C 458.285156 423.078125 454.070313 413.5 442.460938 413.5 C 432.714844 413.5 425.648438 420.503906 425.648438 432.535156 C 425.648438 444.566406 433.546875 451.636719 443.886719 451.636719 C 447.925781 451.636719 451.898438 450.933594 455.394531 449.328125 L 455.394531 440.453125 C 452.144531 442.472656 448.78125 443.242188 445.832031 443.242188 C 440.535156 443.242188 437.210938 441.28125 436.609375 436.246094 L 458.285156 436.246094 Z M 458.285156 433.933594 "/>
<path style=" stroke:none;fill-rule:nonzero;fill:rgb(13.729858%,12.159729%,12.548828%);fill-opacity:1;" d="M 476.496094 413.496094 C 470.242188 413.496094 463.132813 416.925781 463.132813 425.34375 C 463.132813 438.480469 478.546875 434.148438 478.546875 440.3125 C 478.546875 442.820313 476.382813 443.242188 474.15625 443.242188 C 470.242188 443.242188 466.496094 441.972656 463.988281 440.714844 L 463.988281 449.402344 C 466.84375 450.566406 470.183594 451.640625 474.75 451.640625 C 481.859375 451.640625 489.390625 449.1875 489.390625 439.46875 C 489.390625 425.59375 473.246094 430.085938 473.246094 424.421875 C 473.246094 422.382813 475.894531 421.847656 478.242188 421.894531 C 480.730469 421.960938 484.609375 423.003906 486.894531 424.609375 L 486.894531 415.65625 C 483.589844 414.25 479.980469 413.496094 476.496094 413.496094 "/>
<path style=" stroke:none;fill-rule:nonzero;fill:rgb(13.729858%,12.159729%,12.548828%);fill-opacity:1;" d="M 334.628906 371.207031 C 334.628906 374.953125 334.699219 377.351563 334.941406 379.359375 L 323.617188 379.359375 C 323.457031 377.648438 323.296875 375.480469 323.296875 372.859375 L 323.140625 372.859375 C 321.25 377.125 318.101563 379.96875 311.574219 379.96875 C 302.519531 379.96875 299.535156 373.675781 299.535156 365.898438 L 299.535156 340.402344 L 311.96875 340.402344 L 311.96875 364.417969 C 311.96875 369.273438 314.242188 370.539063 316.769531 370.539063 C 320.777344 370.539063 322.1875 367.253906 322.1875 362.238281 L 322.1875 340.402344 L 334.628906 340.402344 Z M 334.628906 371.207031 "/>
<path style=" stroke:none;fill-rule:nonzero;fill:rgb(13.729858%,12.159729%,12.548828%);fill-opacity:1;" d="M 365.429688 355.363281 C 365.429688 350.5 363.148438 349.230469 360.628906 349.230469 C 356.609375 349.230469 355.191406 352.515625 355.191406 357.523438 L 355.191406 379.359375 L 342.777344 379.359375 L 342.777344 348.554688 C 342.777344 344.816406 342.691406 342.421875 342.457031 340.402344 L 353.785156 340.402344 C 353.945313 342.121094 354.09375 344.289063 354.09375 346.910156 L 354.261719 346.910156 C 356.152344 342.644531 359.296875 339.800781 365.824219 339.800781 C 374.867188 339.800781 377.863281 346.09375 377.863281 353.859375 L 377.863281 379.359375 L 365.429688 379.359375 Z M 365.429688 355.363281 "/>
<path style=" stroke:none;fill-rule:nonzero;fill:rgb(13.729858%,12.159729%,12.548828%);fill-opacity:1;" d="M 508.15625 334.945313 C 508.476563 330.679688 510.832031 325.816406 515.632813 325.816406 C 519.804688 325.816406 522.714844 328.511719 524.921875 328.511719 C 526.488281 328.511719 526.882813 326.867188 527.035156 325.816406 L 532.867188 325.816406 C 532.867188 326.34375 532.472656 334.945313 525.390625 334.945313 C 521.773438 334.945313 518.074219 332.25 516.109375 332.25 C 514.460938 332.25 513.980469 334.277344 513.980469 334.945313 Z M 508.15625 334.945313 "/>
<path style=" stroke:none;fill-rule:nonzero;fill:rgb(13.729858%,12.159729%,12.548828%);fill-opacity:1;" d="M 402.3125 369.929688 C 406.179688 369.929688 409.382813 365.683594 409.382813 360.011719 C 409.382813 354.113281 406.554688 349.867188 402.3125 349.867188 C 397.839844 349.867188 395.324219 354.347656 395.324219 359.496094 C 395.324219 365.683594 397.964844 369.929688 402.3125 369.929688 M 420.933594 379.332031 L 410.277344 379.332031 L 410.277344 373.5 L 410.144531 373.5 C 407.890625 377.808594 403.589844 380.234375 398.660156 380.234375 C 388.710938 380.234375 383.398438 370.683594 383.398438 359.195313 C 383.398438 349.644531 388.46875 339.566406 397.699219 339.566406 C 402.3125 339.566406 406.226563 340.984375 409.1875 345.453125 L 409.316406 345.453125 L 409.316406 327.121094 L 420.933594 327.121094 Z M 420.933594 379.332031 "/>
<path style=" stroke:none;fill-rule:nonzero;fill:rgb(13.729858%,12.159729%,12.548828%);fill-opacity:1;" d="M 565.839844 359.9375 C 565.839844 354.113281 563.660156 348.964844 558.335938 348.964844 C 553.011719 348.964844 550.824219 354.113281 550.824219 359.9375 C 550.824219 365.683594 553.011719 370.832031 558.335938 370.832031 C 563.660156 370.832031 565.839844 365.683594 565.839844 359.9375 M 538.886719 359.9375 C 538.886719 347.03125 547.292969 339.566406 558.335938 339.566406 C 569.371094 339.566406 577.777344 347.03125 577.777344 359.9375 C 577.777344 372.765625 569.371094 380.234375 558.335938 380.234375 C 547.292969 380.234375 538.886719 372.765625 538.886719 359.9375 "/>
<path style=" stroke:none;fill-rule:nonzero;fill:rgb(13.729858%,12.159729%,12.548828%);fill-opacity:1;" d="M 449.230469 367 C 447.691406 369.667969 445.175781 371.039063 442.03125 371.039063 C 439.34375 371.039063 437.277344 369.460938 437.277344 366.765625 C 437.277344 363.046875 440.367188 361.636719 444.273438 361.636719 C 446.011719 361.636719 447.75 361.777344 449.230469 361.851563 Z M 460.585938 379.332031 C 460.070313 376.269531 459.9375 373.21875 459.9375 370.164063 L 459.9375 355.683594 C 459.9375 343.820313 452.558594 339.566406 444.019531 339.566406 C 439.164063 339.566406 434.917969 340.363281 430.863281 342.242188 L 430.863281 351.335938 L 430.871094 351.4375 C 434.085938 349.34375 437.800781 348.523438 441.53125 348.523438 C 445.691406 348.523438 449.089844 349.933594 449.15625 355.242188 C 447.671875 354.941406 445.636719 354.714844 443.765625 354.714844 C 437.605469 354.714844 426.503906 356.125 426.503906 367.996094 C 426.503906 376.429688 432.421875 380.230469 439.015625 380.230469 C 443.390625 380.230469 447.148438 378.148438 449.28125 374.191406 L 449.28125 379.332031 Z M 460.585938 379.332031 "/>
<path style=" stroke:none;fill-rule:nonzero;fill:rgb(13.729858%,12.159729%,12.548828%);fill-opacity:1;" d="M 522.179688 367 C 520.65625 369.667969 518.128906 371.039063 514.992188 371.039063 C 512.296875 371.039063 510.25 369.460938 510.25 366.765625 C 510.25 363.046875 513.324219 361.636719 517.238281 361.636719 C 518.964844 361.636719 520.703125 361.777344 522.179688 361.851563 Z M 533.53125 379.332031 C 533.027344 376.269531 532.894531 373.21875 532.894531 370.164063 L 532.894531 355.683594 C 532.894531 343.820313 525.523438 339.566406 516.976563 339.566406 C 512.109375 339.566406 507.875 340.363281 503.816406 342.242188 L 503.816406 351.335938 L 503.828125 351.4375 C 507.039063 349.34375 510.757813 348.523438 514.476563 348.523438 C 518.648438 348.523438 522.058594 349.933594 522.105469 355.242188 C 520.640625 354.941406 518.589844 354.714844 516.730469 354.714844 C 510.5625 354.714844 499.460938 356.125 499.460938 367.996094 C 499.460938 376.429688 505.375 380.230469 511.980469 380.230469 C 516.347656 380.230469 520.113281 378.148438 522.234375 374.191406 L 522.234375 379.332031 Z M 533.53125 379.332031 "/>
<path style=" stroke:none;fill-rule:nonzero;fill:rgb(13.729858%,12.159729%,12.548828%);fill-opacity:1;" d="M 265.378906 327.328125 L 295.722656 327.328125 L 295.722656 337.066406 L 277.765625 337.066406 L 277.765625 347.886719 L 293.402344 347.886719 L 293.402344 357.242188 L 277.765625 357.242188 L 277.765625 379.359375 L 265.378906 379.359375 Z M 265.378906 327.328125 "/>
<path style=" stroke:none;fill-rule:nonzero;fill:rgb(13.729858%,12.159729%,12.548828%);fill-opacity:1;" d="M 484.929688 380.589844 C 490.253906 380.589844 494.339844 378.859375 494.339844 378.859375 C 495.242188 378.515625 496.679688 377.847656 497.289063 377.554688 C 494.753906 374.117188 493.601563 370.839844 493.121094 369.628906 C 492.953125 369.207031 492.90625 368.933594 492.828125 368.960938 C 492.699219 369 492.472656 369.132813 492.292969 369.1875 C 491.25 369.75 489.402344 370.53125 486.800781 370.523438 C 481.824219 370.492188 477.410156 366.679688 477.410156 360.519531 C 477.410156 353.792969 481.089844 350.152344 486.085938 350.152344 C 488.875 350.160156 490.808594 350.855469 492.621094 352.09375 C 493.488281 349.015625 494.941406 346.09375 496.746094 343.691406 C 496.03125 343.171875 494.828125 342.410156 493.214844 341.621094 L 493.214844 341.632813 C 490.773438 340.542969 488.011719 339.933594 484.929688 339.933594 C 473.886719 339.933594 465.46875 347.390625 465.46875 360.304688 C 465.46875 371.449219 471.828125 378.523438 480.734375 380.195313 L 477.285156 385.875 L 479.015625 387.21875 C 479.632813 386.917969 480.335938 386.617188 481.925781 386.617188 C 483.730469 386.617188 485.296875 387.671875 485.296875 389.089844 C 485.296875 391.40625 483.652344 392.226563 481.296875 392.226563 C 478.214844 392.226563 476.410156 391.257813 475.707031 390.957031 L 474.203125 394.394531 C 475.070313 394.996094 478.929688 395.972656 482.628906 395.972656 C 487.101563 395.972656 492.070313 393.730469 492.070313 389.164063 C 492.070313 385.5 489.316406 383.183594 485.464844 383.183594 C 484.359375 383.183594 483.503906 383.332031 482.789063 383.558594 L 484.613281 380.570313 C 484.726563 380.570313 484.820313 380.589844 484.929688 380.589844 "/>
<path style="fill-rule:nonzero;fill:rgb(89.6698%,7.905579%,23.34137%);fill-opacity:1;stroke-width:0.85;stroke-linecap:butt;stroke-linejoin:miter;stroke:rgb(100%,100%,100%);stroke-opacity:1;stroke-miterlimit:10;" d="M 0.00000625 0.001025 L -128.085931 0.001025 C -128.085931 0.001025 -156.484369 0.001025 -156.484369 28.399463 L -156.484369 156.4854 L -28.398431 156.4854 C -28.398431 156.4854 0.00000625 156.4854 0.00000625 128.075244 Z M 0.00000625 0.001025 " transform="matrix(1,0,0,-1,499.8164,301.5479)"/>
<path style=" stroke:none;fill-rule:nonzero;fill:rgb(100%,100%,100%);fill-opacity:1;" d="M 414.511719 279.5625 L 406.820313 279.5625 L 406.820313 240.078125 L 414.511719 240.078125 Z M 414.511719 279.5625 "/>
<path style=" stroke:none;fill-rule:nonzero;fill:rgb(100%,100%,100%);fill-opacity:1;" d="M 434.140625 279.5625 L 421.527344 279.5625 L 421.527344 225.363281 L 434.140625 225.363281 Z M 434.140625 279.5625 "/>
<path style=" stroke:none;fill-rule:nonzero;fill:rgb(100%,100%,100%);fill-opacity:1;" d="M 399.90625 187.625 C 399.90625 187.625 412.613281 175.191406 434.066406 179.285156 C 434.066406 179.285156 443.503906 180.75 450.726563 187.175781 C 450.726563 187.175781 451.804688 188.191406 452.640625 187.363281 C 452.640625 187.363281 453.683594 186.535156 452.519531 185.304688 C 452.519531 185.304688 446.292969 176.675781 434.027344 172.863281 C 434.027344 172.863281 417.160156 166.832031 399.839844 174.984375 C 399.839844 174.984375 389.171875 179.40625 383.265625 191.4375 C 383.265625 191.4375 374.839844 194.164063 368.511719 197.710938 C 368.511719 197.710938 366.648438 198.453125 367.355469 199.902344 C 367.355469 199.902344 367.957031 200.941406 369.597656 200.171875 C 369.597656 200.171875 375.460938 198.144531 381.113281 196.875 C 381.113281 196.875 376.566406 208.671875 381.320313 223.332031 C 383.433594 229.851563 387.285156 236.480469 393.191406 241.808594 C 393.191406 241.808594 394.140625 242.820313 395.191406 242.136719 C 395.191406 242.136719 396.113281 241.476563 395.464844 240.390625 C 395.464844 240.390625 390.769531 233.316406 388.9375 223.25 C 387.417969 215.050781 388.140625 203.722656 393.820313 194.734375 C 393.820313 194.734375 415.523438 191.710938 434.027344 198.671875 C 434.027344 198.671875 465.433594 208.925781 457.523438 227.933594 C 457.523438 227.933594 455.222656 234.539063 446.554688 240.511719 C 446.554688 240.511719 445.101563 241.355469 445.890625 242.566406 C 445.890625 242.566406 446.546875 243.507813 448.039063 242.90625 C 448.039063 242.90625 461.320313 238.59375 467.039063 227.917969 C 467.039063 227.917969 478.675781 210.136719 451.253906 195.628906 C 451.253906 195.628906 443.71875 191.597656 434.027344 189.4375 C 434.027344 189.4375 416.566406 185.117188 399.90625 187.625 "/>
</g>
</svg>
